<svg width="279" height="160" viewBox="0 0 279 160" fill="none" xmlns="http://www.w3.org/2000/svg">
<path d="M218 152C213.5 112 217 24 278.5 1" stroke="black"/>
<path d="M217.625 144.621C216.869 124.744 193.551 85.423 163 83.778" stroke="black"/>
<path d="M218.026 152C218.026 135.183 215.028 96.4024 273 94" stroke="black"/>
<path d="M218 152C215 130.5 199.666 115.505 179.692 118.502" stroke="black"/>
<path d="M224.568 151.733C230.284 139.074 239.07 110.8 226.773 98" stroke="black"/>
<path d="M224.98 150.087C227.46 143.67 237.674 132.854 245.294 134.949" stroke="black"/>
<path d="M223.978 152.625C226.809 144.634 228.055 128.373 221.343 124.526" stroke="black"/>
<path d="M224.932 150.6C226.833 146.995 232.711 142.139 237.222 144.837" stroke="black"/>
<path d="M199.593 150.646C201.285 144.214 202.963 130.146 195.13 125" stroke="black"/>
<path d="M199.638 149.835C200.275 146.605 204.535 140.709 208.777 141.13" stroke="black"/>
<path d="M199.375 151.114C200.033 147.112 198.987 139.307 195.041 137.987" stroke="black"/>
<path d="M199.667 150.082C200.292 148.23 202.887 145.485 205.551 146.426" stroke="black"/>
<path d="M32.6439 150.852C33.6647 127.902 44.2535 80.2285 82.9999 73.3053" stroke="black"/>
<path d="M33.4673 148.167C34.8558 136.908 24.6091 112.498 6.57037 108.582" stroke="black"/>
<path d="M32.9618 152.638C35.2282 138.851 49.2618 114.861 67.197 115.498" stroke="black"/>
<path d="M33.0418 148.93C32.7643 142.149 25.4673 130.025 13.2975 129.756" stroke="black"/>
<path d="M49.4749 151.864C50.2183 140.454 55.2666 116.632 71.3956 112.652" stroke="black"/>
<path d="M49.8531 150.52C50.5852 144.909 46.6869 132.931 39.2778 131.239" stroke="black"/>
<path d="M49.5814 152.747C50.7121 145.869 56.8544 133.76 64.2665 133.825" stroke="black"/>
<path d="M49.6664 150.905C49.6464 147.541 46.7968 141.623 41.7651 141.659" stroke="black"/>
</svg>
