<svg width="273" height="164" viewBox="0 0 273 164" fill="none" xmlns="http://www.w3.org/2000/svg">
<path d="M210.144 153.386C208.287 113.23 216.077 25.5206 271.803 5.46115" stroke="black"/>
<path d="M210.204 145.999C210.593 126.115 186 99 188.5 80" stroke="black"/>
<path d="M210.167 153.387C211.063 136.595 215.526 109.431 249 95.5" stroke="black"/>
<path d="M210.144 153.386C208.63 131.775 195.84 116.076 177.981 118.124" stroke="black"/>
<path d="M221.58 153.113C222.197 150.174 221.774 143.855 214.229 142" stroke="black"/>
<path d="M221.511 152.751C221.635 151.287 224.569 148.447 228.338 148.404" stroke="black"/>
<path d="M221.452 153.332C221.49 151.524 219.527 148.125 215.897 147.754" stroke="black"/>
<path d="M221.569 152.859C221.868 152.005 223.769 150.65 226.227 150.922" stroke="black"/>
<path d="M196.581 152.766C197.353 146.159 197.038 131.995 188.561 128" stroke="black"/>
<path d="M196.512 151.956C196.689 148.669 200.079 142.233 204.338 142.054" stroke="black"/>
<path d="M196.431 153.259C196.52 149.204 194.389 141.623 190.297 140.871" stroke="black"/>
<path d="M196.575 152.196C196.934 150.274 199.118 147.193 201.888 147.75" stroke="black"/>
<path d="M26 154.5C27.0208 131.55 14.547 73.4494 40.547 54.9495" stroke="black"/>
<path d="M26.5141 150.617C27.9027 139.357 6.04704 114.45 7.04703 108.949" stroke="black"/>
<path d="M26.0087 155.087C28.2751 141.3 33.0087 108.449 54.547 111.449" stroke="black"/>
<path d="M26.0887 151.38C25.8111 144.599 18.5141 132.475 6.34437 132.206" stroke="black"/>
<path d="M46.5187 153.784C46.9454 148.513 45.853 137.326 37 134.663" stroke="black"/>
<path d="M46.5 154C46.5019 151.389 48.5 145 53.8364 144.855" stroke="black"/>
<path d="M46.3926 154.183C46.2626 150.97 43.6788 145.098 39.4696 144.743" stroke="black"/>
<path d="M46.4814 153.334C46.7428 151.793 48.7993 149.227 51.6507 149.505" stroke="black"/>
</svg>
