<svg width="280" height="164" viewBox="0 0 280 164" fill="none" xmlns="http://www.w3.org/2000/svg">
<path d="M217.143 153.386C215.287 113.23 223.077 25.5205 278.803 5.46103" stroke="black"/>
<path d="M217.204 145.999C217.593 126.115 199.024 85.7476 172.038 82.6604" stroke="black"/>
<path d="M217.167 153.387C218.063 136.595 217.472 97.7268 268.974 98.0689" stroke="black"/>
<path d="M217.143 153.386C215.63 131.775 202.84 116.076 184.981 118.124" stroke="black"/>
<path d="M228.589 155.113C229.205 152.174 228.782 145.855 221.237 144" stroke="black"/>
<path d="M228.519 154.752C228.643 153.287 231.578 150.447 235.346 150.404" stroke="black"/>
<path d="M228.461 155.332C228.498 153.525 226.535 150.126 222.905 149.755" stroke="black"/>
<path d="M228.577 154.859C228.876 154.005 230.778 152.65 233.235 152.923" stroke="black"/>
<path d="M199.593 153.647C201.285 147.214 202.963 133.146 195.13 128" stroke="black"/>
<path d="M199.638 152.835C200.275 149.606 204.535 143.709 208.777 144.131" stroke="black"/>
<path d="M199.375 154.114C200.033 150.112 198.987 142.307 195.041 140.987" stroke="black"/>
<path d="M199.667 153.082C200.292 151.23 202.887 148.485 205.551 149.426" stroke="black"/>
<path d="M32.6439 153.852C33.6647 130.902 44.2535 83.2286 82.9999 76.3054" stroke="black"/>
<path d="M33.4673 151.167C34.8558 139.908 24.6091 115.498 6.57037 111.582" stroke="black"/>
<path d="M32.9618 155.638C35.2282 141.851 49.2618 117.862 67.197 118.498" stroke="black"/>
<path d="M33.0418 151.93C32.7643 145.149 25.4673 133.025 13.2975 132.756" stroke="black"/>
<path d="M53.8574 154.365C54.2841 149.094 53.1917 137.908 44.3387 135.245" stroke="black"/>
<path d="M53.7428 153.729C53.7447 151.118 56.8465 145.828 61.1751 145.436" stroke="black"/>
<path d="M53.7313 154.765C53.6013 151.552 51.0175 145.68 46.8083 145.324" stroke="black"/>
<path d="M53.8201 153.915C54.0815 152.374 56.138 149.808 58.9894 150.086" stroke="black"/>
</svg>
